<?xml version="1.0" encoding="iso-8859-1"?>
<!-- Generator: Adobe Illustrator 19.0.0, SVG Export Plug-In . SVG Version: 6.00 Build 0)  -->
<svg version="1.1" id="Layer_1" xmlns="http://www.w3.org/2000/svg" xmlns:xlink="http://www.w3.org/1999/xlink" x="0px" y="0px"
	 viewBox="0 0 408.238 408.238" style="enable-background:new 0 0 408.238 408.238;" xml:space="preserve">
<g>
	<g>
		<path d="M165.507,98.96c-20.03,0-36.325,16.295-36.325,36.324c0,20.03,16.295,36.325,36.325,36.325
			c20.03,0,36.325-16.296,36.325-36.325S185.537,98.96,165.507,98.96z M165.507,156.609c-11.759,0-21.325-9.567-21.325-21.325
			s9.566-21.324,21.325-21.324c11.759,0,21.325,9.566,21.325,21.324C186.832,147.043,177.266,156.609,165.507,156.609z"/>
	</g>
</g>
<g>
	<g>
		<path d="M242.732,176.184c-20.03,0-36.325,16.295-36.325,36.324c0,20.03,16.295,36.325,36.325,36.325
			c20.029,0,36.324-16.295,36.324-36.325C279.056,192.479,262.761,176.184,242.732,176.184z M242.732,233.833
			c-11.759,0-21.325-9.566-21.325-21.325c0-11.758,9.566-21.324,21.325-21.324c11.758,0,21.324,9.566,21.324,21.324
			C264.056,224.267,254.489,233.833,242.732,233.833z"/>
	</g>
</g>
<g>
	<g>
		<path d="M246.108,131.907c-2.93-2.929-7.678-2.929-10.607,0l-73.371,73.372c-2.929,2.929-2.929,7.677,0,10.606
			c1.464,1.465,3.384,2.197,5.303,2.197c1.919,0,3.839-0.732,5.303-2.197l73.372-73.372
			C249.037,139.584,249.037,134.836,246.108,131.907z"/>
	</g>
</g>
<g>
	<g>
		<path d="M387.157,220.513c-1.164-2.796-3.896-4.618-6.924-4.618h-62.87V7.5c0-4.142-3.357-7.5-7.5-7.5H98.374
			c-4.142,0-7.5,3.358-7.5,7.5v208.395h-62.87c-3.029,0-5.76,1.822-6.924,4.618s-0.532,6.018,1.603,8.167l176.114,177.343
			c1.408,1.418,3.324,2.215,5.322,2.215c1.999,0,3.914-0.797,5.322-2.215L385.555,228.68
			C387.69,226.531,388.321,223.309,387.157,220.513z M204.119,390.094L46.023,230.895h52.352c4.142,0,7.5-3.358,7.5-7.5V15h196.489
			v208.395c0,4.142,3.357,7.5,7.5,7.5h52.353L204.119,390.094z"/>
	</g>
</g>
<g>
</g>
<g>
</g>
<g>
</g>
<g>
</g>
<g>
</g>
<g>
</g>
<g>
</g>
<g>
</g>
<g>
</g>
<g>
</g>
<g>
</g>
<g>
</g>
<g>
</g>
<g>
</g>
<g>
</g>
</svg>
