<?xml version="1.0" encoding="iso-8859-1"?>
<!-- Generator: Adobe Illustrator 16.0.0, SVG Export Plug-In . SVG Version: 6.00 Build 0)  -->
<!DOCTYPE svg PUBLIC "-//W3C//DTD SVG 1.1//EN" "http://www.w3.org/Graphics/SVG/1.1/DTD/svg11.dtd">
<svg version="1.1" id="Capa_1" xmlns="http://www.w3.org/2000/svg" xmlns:xlink="http://www.w3.org/1999/xlink" x="0px" y="0px"
	 width="33.5px" height="33.5px" viewBox="0 0 33.5 33.5" style="enable-background:new 0 0 33.5 33.5;" xml:space="preserve">
<g>
	<path d="M6.861,23.743l0.28,0.007v0.975h0.991V23.75l0.304-0.007c1.041,0,1.771-0.187,2.188-0.556
		c0.418-0.373,0.627-1.018,0.627-1.938c0-0.854-0.191-1.442-0.575-1.765c-0.383-0.32-1.12-0.512-2.215-0.57l-0.327-0.016v-2.176
		h0.23c0.808,0,1.21,0.321,1.21,0.967l0.006,0.158h1.422v-0.201c0-0.854-0.202-1.439-0.606-1.753
		c-0.406-0.314-1.158-0.471-2.262-0.471v-0.848H7.142v0.848c-1.152,0-1.942,0.163-2.369,0.492c-0.426,0.328-0.64,0.939-0.64,1.83
		c0,0.919,0.214,1.546,0.638,1.883c0.424,0.334,1.213,0.501,2.371,0.501v2.361l-0.218-0.007c-0.594,0-0.978-0.076-1.146-0.232
		c-0.172-0.155-0.258-0.502-0.258-1.039v-0.148H4.049l-0.007,0.297c0,0.879,0.21,1.496,0.633,1.853
		C5.096,23.564,5.826,23.743,6.861,23.743z M8.133,20.186c0.666,0,1.104,0.071,1.314,0.213c0.209,0.143,0.312,0.434,0.312,0.877
		c0,0.812-0.473,1.218-1.417,1.218H8.131L8.133,20.186L8.133,20.186z M6.923,18.842c-0.868,0-1.301-0.359-1.301-1.083
		c0-0.688,0.435-1.034,1.308-1.034l0.211-0.007v2.136C7.003,18.846,6.932,18.842,6.923,18.842z M0,5.25v23h33.5v-23H0z M31.5,26.25
		H2v-19h29.5V26.25z M28.25,12.25h-20v-1h20V12.25z M14,14.75h14.25v1H14V14.75z M14,18.25h14.25v1H14V18.25z M14,21.75h14.25v1H14
		V21.75z"/>
</g>
<g>
</g>
<g>
</g>
<g>
</g>
<g>
</g>
<g>
</g>
<g>
</g>
<g>
</g>
<g>
</g>
<g>
</g>
<g>
</g>
<g>
</g>
<g>
</g>
<g>
</g>
<g>
</g>
<g>
</g>
</svg>
